<?xml version="1.0" encoding="UTF-8" standalone="no"?>
<svg
   viewBox="0 0 945.73002 473.44139"
   width="945.73004"
   height="473.44138"
   version="1.1"
   id="svg20"
   xmlns="http://www.w3.org/2000/svg"
   xmlns:svg="http://www.w3.org/2000/svg">
  <desc
     id="desc1">Boceto1.dxf - scale = 1.000000, origin = (0.000000, 0.000000), method = auto</desc>
  <defs
     id="defs4" />
  <g
     id="g20"
     transform="translate(38.295897,-687.37401)">
    <path
       id="path5"
       fill="currentColor"
       stroke="currentColor"
       d="m 160.3524,687.87401 a 37.79528,37.79528 0 0 0 0,75.58984 h 308.96094 a 37.79528,37.79528 0 0 0 0,-75.58984 z m 496.33984,0 a 137.00788,137.00788 0 0 0 0,274.01562 h 113.38672 a 61.417323,61.417323 0 1 1 0,122.83397 37.7959,37.7959 0 0 0 0,75.5918 137.00789,137.00789 0 0 0 0,-274.01561 H 656.69224 a 61.41797,61.41797 0 1 1 0,-122.83594 37.79528,37.79528 0 0 0 0,-75.58984 z m 113.38672,0 a 37.795275,37.795275 0 0 0 0,75.58984 h 99.21289 a 37.795275,37.795275 0 0 0 0,-75.58984 z m -771.3691399,0.0234 A 37.795279,37.795279 0 0 0 -26.725727,752.39549 L 144.97545,924.09471 -26.725727,1095.7939 a 37.795696,37.795696 0 0 0 53.451172,53.4512 L 225.15123,950.81932 a 37.795276,37.795276 0 0 0 0,-53.44922 L 26.725445,698.94432 A 37.795279,37.795279 0 0 0 -1.2901799,687.89745 Z m 1.03125003,30.21289 a 7.559055,7.559055 0 0 1 5.60351567,2.21484 L 203.77037,918.74901 a 7.559055,7.559055 0 0 1 0,10.69141 L 5.3445858,1127.8642 A 7.559055,7.559055 0 1 1 -5.3448674,1117.1748 L 187.73521,924.09471 -5.3448674,731.01463 a 7.559055,7.559055 0 0 1 5.08593753,-12.90429 z M 311.81138,886.29979 a 37.795276,37.795276 0 0 0 0,75.58984 h 99.21289 a 37.795276,37.795276 0 0 0 0,-75.58984 z m -99.21289,198.42381 a 37.7959,37.7959 0 0 0 0,75.5918 h 444.09375 a 37.7959,37.7959 0 0 0 0,-75.5918 z m 0,30.2363 h 444.09375 a 7.5596,7.5596 0 0 1 0,15.1192 H 212.59849 a 7.5596,7.5596 0 0 1 0,-15.1192 z" />
  </g>
</svg>
